<svg xmlns="http://www.w3.org/2000/svg" width="1600" height="900" viewBox="0 0 1600 900">
  <defs>
    <linearGradient id="g" x1="0" y1="0" x2="1" y2="1"><stop stop-color="#dfe9ec"/><stop offset="1" stop-color="#adc7cf"/></linearGradient>
    <filter id="blur"><feGaussianBlur stdDeviation="1.5"/></filter>
  </defs>
  <rect width="1600" height="900" fill="url(#g)"/>
  <g opacity=".48" filter="url(#blur)">
    <rect x="80" y="130" width="1440" height="70" fill="#eff6f7"/>
    <path d="M120 720h1370" stroke="#7aa0aa" stroke-width="10"/>
    <path d="M130 310h1350" stroke="#9ec1c9" stroke-width="4"/>
    <path d="M130 440h1350" stroke="#9ec1c9" stroke-width="4"/>
    <path d="M130 570h1350" stroke="#9ec1c9" stroke-width="4"/>
    <g fill="#ffffff" stroke="#7b9ba3" stroke-width="4">
      <rect x="180" y="355" width="170" height="95" rx="12"/><rect x="450" y="355" width="170" height="95" rx="12"/><rect x="720" y="355" width="170" height="95" rx="12"/><rect x="990" y="355" width="170" height="95" rx="12"/><rect x="1260" y="355" width="170" height="95" rx="12"/>
      <rect x="250" y="505" width="170" height="95" rx="12"/><rect x="520" y="505" width="170" height="95" rx="12"/><rect x="790" y="505" width="170" height="95" rx="12"/><rect x="1060" y="505" width="170" height="95" rx="12"/>
    </g>
    <g fill="#244c58">
      <circle cx="220" cy="330" r="28"/><rect x="198" y="356" width="50" height="88" rx="18"/>
      <circle cx="493" cy="330" r="28"/><rect x="471" y="356" width="50" height="88" rx="18"/>
      <circle cx="755" cy="330" r="28"/><rect x="733" y="356" width="50" height="88" rx="18"/>
      <circle cx="1032" cy="330" r="28"/><rect x="1010" y="356" width="50" height="88" rx="18"/>
      <circle cx="1288" cy="330" r="28"/><rect x="1266" y="356" width="50" height="88" rx="18"/>
    </g>
    <g stroke="#f6f6f6" stroke-width="14" opacity=".8"><path d="M250 145v160"/><path d="M520 145v160"/><path d="M790 145v160"/><path d="M1060 145v160"/><path d="M1330 145v160"/></g>
  </g>
</svg>
