<svg xmlns="http://www.w3.org/2000/svg" width="900" height="540" viewBox="0 0 900 540">
  <defs><linearGradient id="bg" x1="0" y1="0" x2="1" y2="1"><stop stop-color="#eaf1f3"/><stop offset="1" stop-color="#bfd2d8"/></linearGradient></defs>
  <rect width="900" height="540" fill="url(#bg)"/>
  <circle cx="780" cy="80" r="180" fill="#f07a3f" opacity=".13"/>
  <circle cx="100" cy="455" r="150" fill="#174f5f" opacity=".12"/>
  <rect x="90" y="340" width="720" height="48" rx="24" fill="#d7a66e"/><rect x="135" y="170" width="175" height="210" rx="38" fill="#1f3038"/><path d="M180 173c12-80 85-80 98 0" fill="none" stroke="#0e171c" stroke-width="14"/><rect x="360" y="215" width="220" height="165" rx="32" fill="#79543e"/><path d="M400 215c26-62 120-62 145 0" fill="none" stroke="#4d3226" stroke-width="14"/><rect x="620" y="150" width="140" height="230" rx="30" fill="#6f7a83"/><path d="M650 205h80" stroke="#f07a3f" stroke-width="5"/>
  <rect x="60" y="414" width="780" height="84" rx="18" fill="#0f3946" opacity=".90"/>
  <text x="90" y="457" font-family="Arial, sans-serif" font-size="34" font-weight="800" fill="#fff">Healthcare Brands</text>
  <text x="90" y="485" font-family="Arial, sans-serif" font-size="18" fill="#dce9ec">Field and sample carrying bags</text>
</svg>
